<?xml version="1.0" encoding="UTF-8"?>
<svg width="512px" height="408px" viewBox="0 0 512 408" version="1.1" xmlns="http://www.w3.org/2000/svg" xmlns:xlink="http://www.w3.org/1999/xlink">
    <title>logo</title>
    <defs>
        <linearGradient x1="14.8591797%" y1="19.9301086%" x2="102.242188%" y2="75.2050629%" id="linearGradient-1">
            <stop stop-color="#9013FE" offset="0%"></stop>
            <stop stop-color="#6610F2" offset="100%"></stop>
        </linearGradient>
        <linearGradient x1="9.45878788%" y1="15.4448826%" x2="70.0684848%" y2="77.4758973%" id="linearGradient-2">
            <stop stop-color="#FFFFFF" offset="0%"></stop>
            <stop stop-color="#F1E5FC" offset="100%"></stop>
        </linearGradient>
        <path d="M377,315 L249.830258,315 C233.427634,315 218.260148,312.581497 204.327798,307.74449 C190.395449,302.907484 178.389914,295.849403 168.311193,286.570248 C158.232472,277.291093 150.327593,266.037649 144.596556,252.809917 C138.865519,239.582185 136,224.47888 136,207.5 C136,191.705693 138.914924,177.194674 144.744772,163.966942 C150.574621,150.73921 158.528905,139.387052 168.607626,129.910468 C178.686347,120.433884 190.543665,113.07966 204.179582,107.847796 C217.815498,102.615932 232.439524,100 248.051661,100 C263.663797,100 278.287823,102.665289 291.923739,107.995868 C305.559656,113.326446 317.416974,120.730028 327.495695,130.206612 C337.574416,139.683196 345.5287,150.985996 351.358549,164.115014 C357.188397,177.244031 360.103321,191.705693 360.103321,207.5 C360.103321,215.002296 359.263428,222.307163 357.583641,229.414601 C355.903854,236.522039 353.384174,243.234619 350.0246,249.552342 C346.665027,255.870064 342.317343,261.546143 336.98155,266.580579 C331.645756,271.615014 325.420664,275.711662 318.306273,278.870523 L318.306273,279.46281 L377,279.46281 L377,315 Z M184.02214,207.5 C184.02214,216.581726 185.701927,225.071166 189.061501,232.96832 C192.421074,240.865473 197.015785,247.726125 202.845633,253.550275 C208.675482,259.374426 215.444034,263.964646 223.151292,267.320937 C230.858549,270.677227 239.158672,272.355372 248.051661,272.355372 C256.944649,272.355372 265.244772,270.677227 272.95203,267.320937 C280.659287,263.964646 287.427839,259.374426 293.257688,253.550275 C299.087536,247.726125 303.682247,240.865473 307.04182,232.96832 C310.401394,225.071166 312.081181,216.581726 312.081181,207.5 C312.081181,198.418274 310.401394,189.928834 307.04182,182.03168 C303.682247,174.134527 299.087536,167.273875 293.257688,161.449725 C287.427839,155.625574 280.659287,151.035354 272.95203,147.679063 C265.244772,144.322773 256.944649,142.644628 248.051661,142.644628 C239.158672,142.644628 230.858549,144.322773 223.151292,147.679063 C215.444034,151.035354 208.675482,155.625574 202.845633,161.449725 C197.015785,167.273875 192.421074,174.134527 189.061501,182.03168 C185.701927,189.928834 184.02214,198.418274 184.02214,207.5 Z" id="path-3"></path>
        <filter x="-2.5%" y="-4.2%" width="109.5%" height="107.0%" filterUnits="objectBoundingBox" id="filter-4">
            <feMorphology radius="0.5" operator="dilate" in="SourceAlpha" result="shadowSpreadOuter1"></feMorphology>
            <feOffset dx="11" dy="-3" in="shadowSpreadOuter1" result="shadowOffsetOuter1"></feOffset>
            <feComposite in="shadowOffsetOuter1" in2="SourceAlpha" operator="out" result="shadowOffsetOuter1"></feComposite>
            <feColorMatrix values="0 0 0 0 0.458823529   0 0 0 0 0.0666666667   0 0 0 0 0.964705882  0 0 0 1 0" type="matrix" in="shadowOffsetOuter1"></feColorMatrix>
        </filter>
    </defs>
    <g id="Page-1" stroke="none" stroke-width="1" fill="none" fill-rule="evenodd">
        <g id="logo" fill-rule="nonzero">
            <path d="M56.481,53.32 C55.515,25.58 77.128,0 106.342,0 L405.695,0 C434.909,0 456.522,25.58 455.556,53.32 C454.628,79.967 455.833,114.485 464.52,142.63 C473.235,170.862 487.931,188.707 512,191 L512,217 C487.931,219.293 473.235,237.138 464.52,265.37 C455.833,293.515 454.628,328.033 455.556,354.681 C456.522,382.42 434.909,408 405.695,408 L106.342,408 C77.128,408 55.515,382.42 56.482,354.681 C57.409,328.033 56.204,293.515 47.516,265.37 C38.802,237.138 24.07,219.293 0,217 L0,191 C24.069,188.707 38.802,170.862 47.516,142.63 C56.204,114.485 57.409,79.967 56.481,53.32 Z" id="Path" fill="url(#linearGradient-1)"></path>
            <g id="Shape">
                <use fill="black" fill-opacity="1" filter="url(#filter-4)" xlink:href="#path-3"></use>
                <use stroke="#FFFFFF" stroke-width="1" fill="url(#linearGradient-2)" xlink:href="#path-3"></use>
            </g>
        </g>
    </g>
</svg>